# xmcd
#
# Track frame offsets:
#	150
#	18415
#	39306
#	55625
#	70370
#	84271
#	104112
#	129389
#	150218
#	165878
#	182823
#	197248
#	211362
#	226298
#	242570
#	258368
#	273644
#	287559
#	300351
#
# Disc length: 4410 seconds
#
# Revision: 1
# Processed by: cddbd v1.5.1PL0 Copyright (c) Steve Scherf et al.
# Submitted via: audiograbber 1.83.01
#
DISCID=f7113813
DTITLE=Camp Chordant - Old Friends, New Adventures
DYEAR=1900
DGENRE=
TTITLE0=ZOEGirl - Nummer  1
TTITLE1=The Katinas - Changed
TTITLE2=Jeremy Camp - Empty Me
TTITLE3=Stero Motion - Rise
TTITLE4=Petra - Jekyll and Hyde
TTITLE5=Matthew West - More
TTITLE6=Phillips, Craig and Dean - The heart of worship
TTITLE7=ZOEGirl - Beautiful Name
TTITLE8=Jimmy Fedd - I find you
TTITLE9=KJ 52 - Back in the day
TTITLE10=Sky Harbor - In Stereo
TTITLE11=Thousand Foot Krutch - Bounce
TTITLE12=Stereo Motion - Tip of my tounge
TTITLE13=Superchic[k] - Me Against the World
TTITLE14=ZOEGirl - Love me for me
TTITLE15=Telecast - More of you
TTITLE16=Jimmy Fedd - Without you
TTITLE17=Gaither Vocal Band - Low down the chariot
TTITLE18=Various Artist - Hero Montage
EXTD=
EXTT0=
EXTT1=
EXTT2=
EXTT3=
EXTT4=
EXTT5=
EXTT6=
EXTT7=
EXTT8=
EXTT9=
EXTT10=
EXTT11=
EXTT12=
EXTT13=
EXTT14=
EXTT15=
EXTT16=
EXTT17=
EXTT18=
PLAYORDER=
